<svg xmlns="http://www.w3.org/2000/svg" width="158.16" height="46.44" viewBox="0 0 158.16 46.44">
  <path id="パス_1226" data-name="パス 1226" d="M21.78-41.76h9.3a43.152,43.152,0,0,1,7.08.42v-5.04a42.2,42.2,0,0,1-7.08.42H7.68a42.309,42.309,0,0,1-6.84-.42v5.04a43.127,43.127,0,0,1,6.9-.42H17.1V-7.14a35.774,35.774,0,0,1-.48,6.78h5.64a37,37,0,0,1-.48-6.78ZM74.46-4.98a44.435,44.435,0,0,1-6.66.42H48.78V-22.2H64.56a40.7,40.7,0,0,1,6.72.42v-5.04a46.942,46.942,0,0,1-6.72.42H48.78V-41.76H67.26a42.161,42.161,0,0,1,6.72.42v-5.04a44.739,44.739,0,0,1-6.72.42H50.16c-2.88,0-4.5-.06-6.6-.18a44.219,44.219,0,0,1,.48,6.84V-7.32a41.3,41.3,0,0,1-.48,7.14c2.04-.12,3.72-.18,6.6-.18H67.74a39.289,39.289,0,0,1,6.72.42ZM99.12-21.24l9.9,14.82c1.32,1.92,1.98,3.06,3.72,6.06h6.9c-2.94-3.72-4.38-5.64-5.52-7.26l-12-16.86,10.56-14.94c1.8-2.52,3.3-4.5,4.98-6.54h-6.78a29.489,29.489,0,0,1-3.3,5.7L99.3-27.6,90.72-40.26a35.167,35.167,0,0,1-3.36-5.7H80.64c1.86,2.34,3.24,4.2,4.92,6.48l10.62,15L84.12-7.5c-1.26,1.74-2.04,2.88-5.34,7.14h6.84a69.835,69.835,0,0,1,3.6-6.12Zm43.5-20.52h9.3a43.152,43.152,0,0,1,7.08.42v-5.04a42.2,42.2,0,0,1-7.08.42h-23.4a42.309,42.309,0,0,1-6.84-.42v5.04a43.127,43.127,0,0,1,6.9-.42h9.36V-7.14a35.773,35.773,0,0,1-.48,6.78h5.64a37,37,0,0,1-.48-6.78Z" transform="translate(-0.84 46.38)"/>
</svg>
